<svg width="21" height="22" viewBox="0 0 21 22" fill="none" xmlns="http://www.w3.org/2000/svg">
<path d="M20.2768 20.0779L14.6128 14.4139C15.9739 12.7799 16.6526 10.684 16.5078 8.56234C16.363 6.44064 15.4058 4.45645 13.8353 3.02255C12.2647 1.58864 10.2019 0.815415 8.07579 0.863724C5.9497 0.912033 3.92408 1.77816 2.42033 3.28191C0.916566 4.78567 0.0504433 6.81129 0.00213463 8.93738C-0.0461741 11.0635 0.727051 13.1263 2.16096 14.6968C3.59486 16.2673 5.57905 17.2246 7.70075 17.3694C9.82245 17.5142 11.9183 16.8355 13.5523 15.4744L19.2163 21.1384L20.2768 20.0779ZM1.52682 9.13841C1.52682 7.80339 1.9227 6.49834 2.6644 5.38831C3.4061 4.27828 4.46031 3.41311 5.69371 2.90222C6.92711 2.39133 8.28431 2.25766 9.59368 2.51811C10.9031 2.77856 12.1058 3.42143 13.0498 4.36544C13.9938 5.30944 14.6367 6.51218 14.8971 7.82155C15.1576 9.13092 15.0239 10.4881 14.513 11.7215C14.0021 12.9549 13.137 14.0091 12.0269 14.7508C10.9169 15.4925 9.61184 15.8884 8.27682 15.8884C6.48722 15.8864 4.77148 15.1746 3.50604 13.9092C2.2406 12.6437 1.52881 10.928 1.52682 9.13841Z" fill="black"/>
</svg>
